<svg width="117" height="74" viewBox="0 0 117 74" fill="none" xmlns="http://www.w3.org/2000/svg">
<path d="M44.0193 48.5314H72.9797C73.4671 48.5314 73.8621 48.9279 73.8621 49.4172V56.5116C73.8621 57.0009 73.4671 57.3974 72.9797 57.3974H44.0193C43.5319 57.3974 43.1369 57.0009 43.1369 56.5116V49.4172C43.1369 48.9279 43.5319 48.5314 44.0193 48.5314Z" fill="#0082AC"/>
<path d="M44.0193 16.6017H72.9797C73.4671 16.6017 73.8621 16.9982 73.8621 17.4876V24.5819C73.8621 25.0712 73.4671 25.4678 72.9797 25.4678H44.0193C43.5319 25.4678 43.1369 25.0712 43.1369 24.5819V17.4876C43.1369 16.9982 43.5319 16.6017 44.0193 16.6017Z" fill="#0082AC"/>
<path d="M106.582 32.4348C106.582 27.3609 103.224 24.9045 99.469 24.9045C95.7136 24.9045 92.3565 27.0654 92.3565 32.1392V56.5075C92.3565 56.9968 91.9615 57.3934 91.4741 57.3934H83.3663C82.8789 57.3934 82.4839 56.9968 82.4839 56.5075V17.4818C82.4839 16.9924 82.8789 16.5959 83.3663 16.5959H88.2838C89.0296 16.5959 89.4443 16.8455 89.7755 17.178C90.4387 17.7601 91.6417 19.2092 91.6417 19.2092C92.7908 18.2453 95.5795 15.999 100.775 15.999C109.475 15.999 116.456 22.2699 116.456 31.3814V56.5059C116.456 56.9952 116.061 57.3917 115.573 57.3917H107.466C106.978 57.3917 106.583 56.9952 106.583 56.5059V32.4348H106.582Z" fill="#0082AC"/>
<path d="M44.0194 64.4958H52.1272C52.6146 64.4958 53.0096 64.8924 53.0096 65.3817V72.476C53.0096 72.9654 52.6146 73.3619 52.1272 73.3619H44.0194C43.5319 73.3619 43.1369 72.9654 43.1369 72.476V65.3817C43.1369 64.8932 43.5319 64.4958 44.0194 64.4958Z" fill="#0082AC"/>
<path d="M44.0194 0.636353H52.1272C52.6146 0.636353 53.0096 1.0329 53.0096 1.52222V8.61654C53.0096 9.10586 52.6146 9.50241 52.1272 9.50241H44.0194C43.5319 9.50241 43.1369 9.10586 43.1369 8.61654V1.52222C43.1369 1.0329 43.5319 0.636353 44.0194 0.636353Z" fill="#0082AC"/>
<path d="M44.0194 32.566H60.7478C61.2352 32.566 61.6302 32.9626 61.6302 33.4519V40.5462C61.6302 41.0355 61.2352 41.432 60.7478 41.432H44.0194C43.5319 41.432 43.1369 41.0355 43.1369 40.5462V33.4519C43.1369 32.9626 43.5319 32.566 44.0194 32.566Z" fill="#0082AC"/>
<path d="M24.643 32.4348C24.643 27.3609 21.2859 24.9045 17.5305 24.9045C13.775 24.9045 10.4179 27.0654 10.4179 32.1392V56.5075C10.4179 56.9968 10.0229 57.3934 9.5355 57.3934H1.42687C0.939453 57.3926 0.544449 56.996 0.544449 56.5067V17.4818C0.544449 16.9924 0.939453 16.5959 1.42687 16.5959H6.34439C7.09023 16.5959 7.50487 16.8455 7.83608 17.178C8.49933 17.7601 9.70233 19.2092 9.70233 19.2092C10.8514 18.2453 13.6401 15.999 18.8357 15.999C27.5356 15.999 34.5165 22.2699 34.5165 31.3814V56.5059C34.5165 56.9952 34.1214 57.3917 33.634 57.3917H25.5262C25.0388 57.3917 24.6438 56.9952 24.6438 56.5059V32.4348H24.643Z" fill="#0082AC"/>
</svg>
